HIERARCHY
ROOT Hips
{
	OFFSET -0.001795 -0.223333 0.028219
	CHANNELS 6 Xposition Yposition Zposition Zrotation Yrotation Xrotation 
	JOINT LeftUpLeg
	{
		OFFSET 0.069520 -0.091406 -0.006815
		CHANNELS 3 Zrotation Yrotation Xrotation
		JOINT LeftLeg
		{
			OFFSET 0.034277 -0.375199 -0.004496
			CHANNELS 3 Zrotation Yrotation Xrotation
			JOINT LeftFoot
			{
				OFFSET -0.013596 -0.397961 -0.043693
				CHANNELS 3 Zrotation Yrotation Xrotation
				JOINT LeftToe
				{
					OFFSET 0.026358 -0.055791 0.119288
					CHANNELS 3 Zrotation Yrotation Xrotation
					End Site
					{
						OFFSET 0.000000 0.000000 0.000000
					}
				}
			}
		}
	}
	JOINT RightUpLeg
	{
		OFFSET -0.067670 -0.090522 -0.004320
		CHANNELS 3 Zrotation Yrotation Xrotation
		JOINT RightLeg
		{
			OFFSET -0.038290 -0.382569 -0.008850
			CHANNELS 3 Zrotation Yrotation Xrotation
			JOINT RightFoot
			{
				OFFSET 0.015774 -0.398415 -0.042312
				CHANNELS 3 Zrotation Yrotation Xrotation
				JOINT RightToe
				{
					OFFSET -0.025372 -0.048144 0.123348
					CHANNELS 3 Zrotation Yrotation Xrotation
					End Site
					{
						OFFSET 0.000000 0.000000 0.000000
					}
				}
			}
		}
	}
	JOINT Spine
	{
		OFFSET -0.002533 0.108963 -0.026696
		CHANNELS 3 Zrotation Yrotation Xrotation
		JOINT Spine1
		{
			OFFSET 0.005487 0.135180 0.001092
			CHANNELS 3 Zrotation Yrotation Xrotation
			JOINT Spine2
			{
				OFFSET 0.001457 0.052922 0.025425
				CHANNELS 3 Zrotation Yrotation Xrotation
				JOINT Neck
				{
					OFFSET -0.002778 0.213870 -0.042857
					CHANNELS 3 Zrotation Yrotation Xrotation
					JOINT Head
					{
						OFFSET 0.005152 0.064970 0.051349
						CHANNELS 3 Zrotation Yrotation Xrotation
						End Site
						{
							OFFSET 0.000000 0.000000 0.000000
						}
					}
				}
				JOINT LeftShoulder
				{
					OFFSET 0.078845 0.121749 -0.034090
					CHANNELS 3 Zrotation Yrotation Xrotation
					JOINT LeftArm
					{
						OFFSET 0.090977 0.030469 -0.008868
						CHANNELS 3 Zrotation Yrotation Xrotation
						JOINT LeftForeArm
						{
							OFFSET 0.259612 -0.012772 -0.027456
							CHANNELS 3 Zrotation Yrotation Xrotation
							JOINT LeftHand
							{
								OFFSET 0.249234 0.008986 -0.001171
								CHANNELS 3 Zrotation Yrotation Xrotation
								End Site
								{
									OFFSET 0.000000 0.000000 0.000000
								}
							}
						}
					}
				}
				JOINT RightShoulder
				{
					OFFSET -0.081759 0.118833 -0.038615
					CHANNELS 3 Zrotation Yrotation Xrotation
					JOINT RightArm
					{
						OFFSET -0.096012 0.032551 -0.009143
						CHANNELS 3 Zrotation Yrotation Xrotation
						JOINT RightForeArm
						{
							OFFSET -0.253742 -0.013329 -0.021401
							CHANNELS 3 Zrotation Yrotation Xrotation
							JOINT RightHand
							{
								OFFSET -0.255298 0.007772 -0.005559
								CHANNELS 3 Zrotation Yrotation Xrotation
								End Site
								{
									OFFSET 0.000000 0.000000 0.000000
								}
							}
						}
					}
				}
			}
		}
	}
}
MOTION
Frames: 11
Frame Time: 0.050000
0.000000 0.946231 0.000000 -14.724897 26.838811 -27.821250 15.958320 -2.344364 8.883407 -16.609377 1.181086 20.037018 13.456104 22.191021 -1.683354 0.000000 0.000000 0.000000 -5.105468 -12.825835 -75.859400 8.082678 -4.371339 41.687903 -9.193847 -16.288695 9.721884 0.000000 0.000000 0.000000 4.566094 -8.715147 43.065832 12.503070 -0.549644 -37.790289 -3.734550 -1.955555 28.111372 2.147917 -1.329074 -2.532545 0.000000 0.000000 0.000000 -32.295564 -22.845000 8.319161 -22.859726 -26.227319 1.019566 -112.266096 -72.993653 96.938975 0.000000 0.000000 0.000000 17.575209 13.426823 8.565334 22.744309 13.565422 -2.527627 -127.135460 75.115588 -105.510354 0.000000 0.000000 0.000000 
-0.003435 0.965878 -0.006226 -13.067659 28.356670 -23.055961 12.410712 -1.281531 4.267187 -14.640902 0.734436 19.787890 11.916932 20.959970 3.219680 0.000000 0.000000 0.000000 -7.505681 -13.898412 -71.376635 11.921571 -4.330831 24.856554 -22.305172 -32.506887 8.900084 0.000000 0.000000 0.000000 4.304701 -7.896534 40.124037 9.686937 -0.190149 -42.163062 -2.716964 -3.417568 29.381841 3.479891 -2.480248 -3.641666 0.000000 0.000000 0.000000 -30.718857 -21.656931 7.820779 -27.289816 -29.415073 1.760603 -114.219168 -71.277075 97.867873 0.000000 0.000000 0.000000 17.530172 10.291870 7.148345 23.600389 13.844773 -2.635604 -134.816097 74.183171 -112.767670 0.000000 0.000000 0.000000 
-0.006479 0.984132 -0.011598 -11.045264 24.995677 -21.853534 12.476963 -1.164296 4.705478 -12.945553 0.753538 19.435522 9.975039 20.334443 11.474391 0.000000 0.000000 0.000000 -6.183888 -8.300375 -62.802678 10.310554 -2.936533 15.992128 -17.342085 -35.006834 -9.344622 0.000000 0.000000 0.000000 3.143236 -6.314025 38.278535 10.754670 -0.301868 -35.408399 -5.893837 -0.753200 24.406436 6.333259 -5.003249 -4.062658 0.000000 0.000000 0.000000 -29.129681 -21.609159 6.887244 -26.806379 -25.796385 1.572944 -117.077318 -71.903215 100.526771 0.000000 0.000000 0.000000 21.146547 12.141774 8.939223 24.361635 13.248732 -2.566016 -107.893826 73.273677 -82.570854 0.000000 0.000000 0.000000 
-0.008111 0.996607 -0.014307 -10.574391 25.433962 -20.308487 13.541994 -1.351141 4.807971 -14.449747 1.001625 15.823784 9.410033 20.287480 15.107434 0.000000 0.000000 0.000000 -6.531003 -7.422880 -58.338579 7.775774 -2.320520 16.395611 -15.335291 -32.721808 -11.589138 0.000000 0.000000 0.000000 5.107748 -6.566398 36.485567 6.727585 0.347577 -35.813547 -4.139796 -3.554543 26.139415 6.254829 -4.630180 -6.208806 0.000000 0.000000 0.000000 -28.708270 -20.397570 7.095324 -28.484485 -24.127053 0.984217 -116.133141 -69.116135 97.549266 0.000000 0.000000 0.000000 21.101941 8.863635 6.795933 25.262406 15.434538 -2.330945 -131.801641 73.109397 -107.963897 0.000000 0.000000 0.000000 
-0.008138 1.000281 -0.016019 -9.349014 21.756315 -18.358529 14.245021 -1.342511 5.820129 -15.418516 1.390147 14.593158 13.784241 25.332553 16.288525 0.000000 0.000000 0.000000 -7.453902 -6.292151 -57.754535 10.837132 -5.061922 30.333764 -17.558996 -33.481649 0.771585 0.000000 0.000000 0.000000 2.291670 -5.086546 36.216938 13.416471 -1.182526 -35.247532 -7.032033 2.431782 26.093334 9.848394 -7.207822 -7.128207 0.000000 0.000000 0.000000 -28.687349 -19.301666 4.833692 -29.003641 -18.439480 0.288892 -113.383968 -64.246261 87.571706 0.000000 0.000000 0.000000 23.030975 7.030791 6.998516 24.500507 17.433184 -2.148494 -143.372581 69.390426 -117.252264 0.000000 0.000000 0.000000 
-0.008167 0.990058 -0.016252 -8.744941 20.255661 -15.567979 13.704157 -1.184496 5.548260 -13.530495 1.247919 13.921649 12.416404 23.830018 16.235744 0.000000 0.000000 0.000000 -8.571028 -6.124799 -57.090498 14.035433 -8.424445 40.544331 -16.879667 -30.560285 8.899990 0.000000 0.000000 0.000000 2.119512 -4.111142 32.724634 14.066635 -1.484094 -34.187138 -8.027152 1.723469 25.925974 8.267162 -5.458896 -7.892849 0.000000 0.000000 0.000000 -30.342307 -16.041970 2.986378 -29.004224 -13.335406 -0.735338 -109.169593 -62.204414 81.225111 0.000000 0.000000 0.000000 19.959541 6.850040 6.109534 31.277490 18.143385 -1.771350 -145.326425 66.416459 -114.466460 0.000000 0.000000 0.000000 
-0.009157 0.969512 -0.017544 -8.529852 17.937754 -14.134026 13.366824 -1.154521 7.060247 -12.994520 1.275924 12.093343 11.861296 22.985421 13.817000 0.000000 0.000000 0.000000 -9.955709 -5.448131 -53.899660 17.161490 -12.698100 50.638777 -15.002707 -27.488618 16.958346 0.000000 0.000000 0.000000 3.896441 -4.014121 30.692450 8.566902 -0.477090 -32.625057 -4.738157 -1.596923 24.611278 8.217214 -5.888957 -7.709192 0.000000 0.000000 0.000000 -31.691976 -14.732538 3.857970 -29.990300 -10.817208 -1.713164 -100.831436 -62.360188 74.463407 0.000000 0.000000 0.000000 21.768296 5.785507 4.762549 29.931471 19.536789 -1.268081 -153.587072 65.267421 -127.012663 0.000000 0.000000 0.000000 
-0.012034 0.948917 -0.022853 -7.924474 17.630514 -11.369535 12.584867 -0.883909 4.399550 -11.802778 1.125467 11.740206 14.231271 25.778987 9.531623 0.000000 0.000000 0.000000 -11.746667 -5.604078 -50.643162 18.431495 -15.581909 56.867410 -13.584118 -25.147961 26.276323 0.000000 0.000000 0.000000 3.460598 -3.816236 30.431542 9.063256 -0.549936 -32.975260 -5.448656 -2.091621 25.610356 6.799282 -3.457103 -13.772737 0.000000 0.000000 0.000000 -31.821211 -11.245914 1.951192 -27.948716 -9.314547 -2.088378 -98.678507 -59.824461 69.672137 0.000000 0.000000 0.000000 23.603380 5.579640 4.596902 28.457755 21.188622 -0.938581 -158.096998 61.254518 -131.314428 0.000000 0.000000 0.000000 
-0.015289 0.944019 -0.029105 -6.356584 15.594216 -7.202403 12.352557 -0.567255 -2.628066 -12.798644 1.503099 16.636603 12.854173 24.206718 5.900031 0.000000 0.000000 0.000000 -11.097494 -3.707324 -46.007048 17.239613 -14.423877 56.608093 -10.632299 -21.582785 30.809753 0.000000 0.000000 0.000000 2.136476 -2.688145 26.612220 8.560554 -0.684316 -29.989161 -5.663184 -2.113182 23.064006 6.857659 -3.105530 -15.443730 0.000000 0.000000 0.000000 -29.820030 -9.565990 1.201833 -29.986746 -5.849502 -2.844067 -92.301988 -58.426966 62.359542 0.000000 0.000000 0.000000 21.317017 5.167417 3.816047 33.751965 22.317014 0.007367 -162.640189 60.918281 -137.214884 0.000000 0.000000 0.000000 
-0.017469 0.942754 -0.033152 -4.677462 11.258629 -5.163599 10.516797 -0.375633 -6.400789 -12.051261 1.759161 19.880960 11.362251 22.384539 6.890969 0.000000 0.000000 0.000000 -8.947408 -0.849755 -36.817443 14.450385 -10.828486 53.966065 -7.904531 -18.553504 25.939903 0.000000 0.000000 0.000000 0.521556 -1.947471 25.933921 5.158784 -0.020634 -31.728893 -2.490160 -0.254002 25.116814 6.935563 -2.699287 -18.942957 0.000000 0.000000 0.000000 -29.383964 -8.657591 1.129758 -30.542743 -4.283510 -3.527648 -86.627036 -57.620130 56.966985 0.000000 0.000000 0.000000 22.636348 3.804540 2.964048 32.048058 25.807474 0.585791 -167.320915 59.409721 -144.659398 0.000000 0.000000 0.000000 
-0.018151 0.937763 -0.034041 -3.206672 9.396729 -2.702101 9.185803 -0.454507 -10.227851 -10.887792 1.702036 22.915024 10.848352 21.696906 6.219654 0.000000 0.000000 0.000000 -8.141169 0.039425 -29.047080 12.094820 -8.132450 50.576413 -10.638968 -22.274194 27.000975 0.000000 0.000000 0.000000 -0.571252 -1.369634 23.723316 4.790614 0.105863 -33.546007 -3.617421 0.656852 28.647423 8.553534 -3.768316 -19.948952 0.000000 0.000000 0.000000 -28.616700 -8.179189 1.126481 -31.601720 -1.988405 -4.436696 -84.013899 -57.628542 54.999636 0.000000 0.000000 0.000000 23.771450 5.515546 4.194530 30.358861 29.131091 0.863802 -162.312131 58.667816 -135.519084 0.000000 0.000000 0.000000 
